<?xml version="1.0" encoding="UTF-8" standalone="no"?>
<!-- Created with Inkscape (http://www.inkscape.org/) -->

<svg
   version="1.1"
   id="svg212"
   width="1675.6301"
   height="1342.8829"
   viewBox="0 0 1675.6302 1342.8829"
   xmlns="http://www.w3.org/2000/svg"
   xmlns:svg="http://www.w3.org/2000/svg">
  <defs
     id="defs216">
    <clipPath
       clipPathUnits="userSpaceOnUse"
       id="clipPath242">
      <path
         d="M 5607.92,9849.5 V 1239.05 L 5990.4,609.953 6372.88,1239.05 V 9849.5 Z"
         id="path240" />
    </clipPath>
    <linearGradient
       x1="0"
       y1="0"
       x2="1"
       y2="0"
       gradientUnits="userSpaceOnUse"
       gradientTransform="matrix(764.961,0,0,-764.961,5607.92,5229.72)"
       spreadMethod="pad"
       id="linearGradient250">
      <stop
         style="stop-opacity:1;stop-color:#ffffff"
         offset="0"
         id="stop244" />
      <stop
         style="stop-opacity:1;stop-color:#ffffff"
         offset="0.74930432"
         id="stop246" />
      <stop
         style="stop-opacity:1;stop-color:#c60a4d"
         offset="1"
         id="stop248" />
    </linearGradient>
  </defs>
  <g
     id="g220"
     transform="matrix(1.3333333,0,0,-1.3333333,-0.07182188,1343.04)">
    <g
       id="g222"
       transform="scale(0.1)">
      <path
         d="m 3223.06,7149.63 c 0,0 3344.84,-3284.84 8639.54,-2849.86 0,0 405,-1994.91 -1469.9,-3029.86 0,0 -4079.8,-2744.81 -8774.57,0 0,0 -2159.884,1259.95 -1409.923,3464.84 0,0 584.973,1604.92 3014.853,2414.88"
         style="fill:#ffffff;fill-opacity:1;fill-rule:nonzero;stroke:none"
         id="path224" />
      <path
         d="m 3223.06,7149.63 c 0,0 3344.84,-3284.84 8639.54,-2849.86 0,0 405,-1994.91 -1469.9,-3029.86 0,0 -4079.8,-2744.81 -8774.57,0 0,0 -2159.884,1259.95 -1409.923,3464.84 0,0 584.973,1604.92 3014.853,2414.88 z"
         style="fill:none;stroke:#c60a4d;stroke-width:100;stroke-linecap:butt;stroke-linejoin:miter;stroke-miterlimit:4;stroke-dasharray:none;stroke-opacity:1"
         id="path226" />
      <path
         d="M 50,3804.79 H 11899.5"
         style="fill:none;stroke:#c60a4d;stroke-width:100;stroke-linecap:butt;stroke-linejoin:miter;stroke-miterlimit:4;stroke-dasharray:none;stroke-opacity:1"
         id="path228" />
      <path
         d="m 1671.33,1239.05 c 0,0 3846.61,1905.77 8721.37,30.86"
         style="fill:none;stroke:#c60a4d;stroke-width:100;stroke-linecap:butt;stroke-linejoin:miter;stroke-miterlimit:4;stroke-dasharray:none;stroke-opacity:1"
         id="path230" />
      <path
         d="m 3763.03,7089.63 c 0,0 3464.85,-3104.85 8744.57,-2414.88 0,0 -660,3104.85 -6104.72,2969.85 0,0 -1334.88,-60 -2639.85,-554.97"
         style="fill:#ffffff;fill-opacity:1;fill-rule:nonzero;stroke:none"
         id="path232" />
      <path
         d="m 3763.03,7089.63 c 0,0 3464.85,-3104.85 8744.57,-2414.88 0,0 -660,3104.85 -6104.72,2969.85 0,0 -1334.88,-60 -2639.85,-554.97 z"
         style="fill:none;stroke:#c60a4d;stroke-width:100;stroke-linecap:butt;stroke-linejoin:miter;stroke-miterlimit:4;stroke-dasharray:none;stroke-opacity:1"
         id="path234" />
      <g
         id="g236">
        <g
           id="g238"
           clip-path="url(#clipPath242)">
          <path
             d="M 5607.92,9849.5 V 1239.05 L 5990.4,609.953 6372.88,1239.05 V 9849.5 h -764.96"
             style="fill:url(#linearGradient250);fill-opacity:1;fill-rule:nonzero;stroke:none"
             id="path252" />
        </g>
      </g>
      <path
         d="M 5607.92,9849.5 V 1239.05 L 5990.4,609.953 6372.88,1239.05 V 9849.5 Z"
         style="fill:none;stroke:#c60a4d;stroke-width:100;stroke-linecap:butt;stroke-linejoin:miter;stroke-miterlimit:4;stroke-dasharray:none;stroke-opacity:1"
         id="path254" />
      <path
         d="m 6372.88,9849.5 c 0,-95.73 -171.25,-173.32 -382.49,-173.32 -211.24,0 -382.48,77.59 -382.48,173.32 0,95.71 171.24,173.3 382.48,173.3 211.24,0 382.49,-77.59 382.49,-173.3"
         style="fill:#ffffff;fill-opacity:1;fill-rule:nonzero;stroke:none"
         id="path256" />
      <path
         d="m 6372.88,9849.5 c 0,-95.73 -171.25,-173.32 -382.49,-173.32 -211.24,0 -382.48,77.59 -382.48,173.32 0,95.71 171.24,173.3 382.48,173.3 211.24,0 382.49,-77.59 382.49,-173.3 z"
         style="fill:none;stroke:#c60a4d;stroke-width:100;stroke-linecap:butt;stroke-linejoin:miter;stroke-miterlimit:4;stroke-dasharray:none;stroke-opacity:1"
         id="path258" />
      <path
         d="m 154.48,9248.77 120.637,10.55 c 5.703,-48.34 19,-88.01 39.883,-118.98 20.863,-30.98 53.277,-56.04 97.23,-75.16 43.942,-19.11 93.379,-28.67 148.321,-28.67 48.785,0 91.847,7.25 129.207,21.75 37.344,14.51 65.148,34.38 83.39,59.66 18.231,25.27 27.356,52.84 27.356,82.74 0,30.32 -8.801,56.79 -26.367,79.43 -17.578,22.62 -46.586,41.63 -87.02,57.01 -25.933,10.11 -83.285,25.82 -172.051,47.14 -88.777,21.31 -150.957,41.42 -186.554,60.32 -46.145,24.16 -80.532,54.15 -103.164,89.98 -22.637,35.82 -33.953,75.91 -33.953,120.31 0,48.78 13.843,94.36 41.535,136.78 27.679,42.41 68.109,74.59 121.293,96.57 53.164,21.98 112.277,32.96 177.324,32.96 71.621,0 134.805,-11.54 189.523,-34.61 54.715,-23.07 96.789,-57.01 126.239,-101.84 29.433,-44.83 45.254,-95.58 47.461,-152.28 l -122.618,-9.22 c -6.586,61.07 -28.894,107.22 -66.902,138.42 -38.02,31.21 -94.172,46.81 -168.43,46.81 -77.351,0 -133.715,-14.17 -169.086,-42.52 -35.375,-28.35 -53.066,-62.52 -53.066,-102.51 0,-34.71 12.527,-63.28 37.574,-85.69 24.606,-22.42 88.879,-45.38 192.817,-68.89 103.929,-23.51 175.238,-44.06 213.91,-61.63 56.258,-25.94 97.785,-58.79 124.594,-98.56 26.796,-39.77 40.21,-85.59 40.21,-137.44 0,-51.42 -14.73,-99.87 -44.168,-145.36 -29.445,-45.48 -71.75,-80.86 -126.894,-106.13 -55.156,-25.27 -117.238,-37.9 -186.227,-37.9 -87.461,0 -160.742,12.75 -219.843,38.23 -59.114,25.48 -105.473,63.83 -139.098,115.03 -33.617,51.2 -51.313,109.1 -53.063,173.7"
         style="fill:#c60a4d;fill-opacity:1;fill-rule:nonzero;stroke:none"
         id="path260" />
      <path
         d="m 1120.22,8938.29 v 966.4 h 127.89 v -966.4 h -127.89"
         style="fill:#c60a4d;fill-opacity:1;fill-rule:nonzero;stroke:none"
         id="path262" />
      <path
         d="m 1469.6,8938.29 v 966.4 h 192.48 l 228.75,-684.26 c 21.09,-63.73 36.47,-111.4 46.14,-143.05 10.98,35.15 28.12,86.79 51.42,154.92 l 231.39,672.39 h 172.05 v -966.4 h -123.28 v 808.84 l -280.82,-808.84 h -115.36 l -279.5,822.69 V 8938.29 H 1469.6"
         style="fill:#c60a4d;fill-opacity:1;fill-rule:nonzero;stroke:none"
         id="path264" />
      <path
         d="m 2554.65,9248.77 120.63,10.55 c 5.71,-48.34 19,-88.01 39.88,-118.98 20.87,-30.98 53.28,-56.04 97.24,-75.16 43.94,-19.11 93.37,-28.67 148.32,-28.67 48.78,0 91.84,7.25 129.2,21.75 37.35,14.51 65.15,34.38 83.4,59.66 18.22,25.27 27.35,52.84 27.35,82.74 0,30.32 -8.8,56.79 -26.37,79.43 -17.58,22.62 -46.59,41.63 -87.01,57.01 -25.94,10.11 -83.29,25.82 -172.06,47.14 -88.77,21.31 -150.95,41.42 -186.55,60.32 -46.15,24.16 -80.54,54.15 -103.17,89.98 -22.63,35.82 -33.95,75.91 -33.95,120.31 0,48.78 13.85,94.36 41.53,136.78 27.69,42.41 68.12,74.59 121.29,96.57 53.17,21.98 112.29,32.96 177.33,32.96 71.62,0 134.81,-11.54 189.53,-34.61 54.71,-23.07 96.79,-57.01 126.23,-101.84 29.44,-44.83 45.26,-95.58 47.47,-152.28 l -122.62,-9.22 c -6.59,61.07 -28.9,107.22 -66.9,138.42 -38.02,31.21 -94.17,46.81 -168.43,46.81 -77.36,0 -133.72,-14.17 -169.09,-42.52 -35.38,-28.35 -53.07,-62.52 -53.07,-102.51 0,-34.71 12.53,-63.28 37.58,-85.69 24.6,-22.42 88.88,-45.38 192.81,-68.89 103.94,-23.51 175.24,-44.06 213.92,-61.63 56.25,-25.94 97.78,-58.79 124.59,-98.56 26.8,-39.77 40.21,-85.59 40.21,-137.44 0,-51.42 -14.73,-99.87 -44.17,-145.36 -29.45,-45.48 -71.75,-80.86 -126.89,-106.13 -55.16,-25.27 -117.24,-37.9 -186.23,-37.9 -87.46,0 -160.74,12.75 -219.84,38.23 -59.11,25.48 -105.48,63.83 -139.1,115.03 -33.62,51.2 -51.31,109.1 -53.06,173.7"
         style="fill:#c60a4d;fill-opacity:1;fill-rule:nonzero;stroke:none"
         id="path266" />
      <path
         d="m 3950.84,9317.33 v 113.38 l 409.37,0.67 v -358.61 c -62.85,-50.1 -127.67,-87.79 -194.46,-113.06 -66.81,-25.27 -135.37,-37.9 -205.67,-37.9 -94.93,0 -181.18,20.32 -258.75,60.98 -77.57,40.64 -136.12,99.42 -175.67,176.34 -39.55,76.89 -59.33,162.82 -59.33,257.75 0,94.03 19.67,181.82 59,263.34 39.33,81.52 95.92,142.06 169.74,181.62 73.84,39.55 158.87,59.32 255.12,59.32 69.87,0 133.04,-11.31 189.52,-33.95 56.46,-22.63 100.74,-54.16 132.83,-94.59 32.08,-40.44 56.46,-93.17 73.17,-158.21 l -115.36,-31.64 c -14.5,49.21 -32.53,87.89 -54.05,116.02 -21.54,28.12 -52.31,50.64 -92.29,67.57 -40,16.91 -84.38,25.37 -133.17,25.37 -58.45,0 -108.99,-8.89 -151.61,-26.69 -42.63,-17.8 -77.02,-41.2 -103.17,-70.2 -26.15,-29.01 -46.47,-60.88 -60.97,-95.59 -24.62,-59.77 -36.92,-124.59 -36.92,-194.46 0,-86.15 14.83,-158.22 44.5,-216.22 29.66,-58.02 72.84,-101.1 129.53,-129.21 56.7,-28.13 116.9,-42.19 180.63,-42.19 55.37,0 109.42,10.65 162.16,31.97 52.73,21.31 92.72,44.05 119.98,68.23 v 179.96 h -284.13"
         style="fill:#c60a4d;fill-opacity:1;fill-rule:nonzero;stroke:none"
         id="path268" />
      <path
         d="m 7470.16,8939.77 v 963.46 h 127.5 v -963.46 h -127.5"
         style="fill:#c60a4d;fill-opacity:1;fill-rule:nonzero;stroke:none"
         id="path270" />
      <path
         d="m 7779.05,9249.32 120.28,10.51 c 5.67,-48.2 18.92,-87.74 39.75,-118.63 20.81,-30.88 53.11,-55.86 96.92,-74.92 43.81,-19.06 93.11,-28.59 147.88,-28.59 48.65,0 91.55,7.23 128.8,21.7 37.25,14.45 64.98,34.27 83.15,59.47 18.17,25.19 27.28,52.67 27.28,82.48 0,30.23 -8.78,56.61 -26.31,79.19 -17.51,22.56 -46.42,41.51 -86.74,56.85 -25.86,10.07 -83.04,25.73 -171.54,46.98 -88.49,21.25 -150.48,41.3 -185.98,60.14 -45.97,24.09 -80.27,53.99 -102.87,89.71 -22.55,35.71 -33.83,75.68 -33.83,119.94 0,48.62 13.79,94.08 41.42,136.38 27.59,42.26 67.9,74.35 120.93,96.27 53.02,21.9 111.91,32.86 176.77,32.86 71.41,0 134.41,-11.51 188.95,-34.5 54.55,-23.01 96.49,-56.86 125.84,-101.55 29.36,-44.68 45.14,-95.29 47.33,-151.81 l -122.25,-9.2 c -6.56,60.89 -28.81,106.9 -66.67,138.01 -37.91,31.11 -93.9,46.66 -167.94,46.66 -77.1,0 -133.31,-14.12 -168.56,-42.38 -35.29,-28.26 -52.91,-62.34 -52.91,-102.2 0,-34.62 12.49,-63.09 37.47,-85.43 24.51,-22.35 88.61,-45.25 192.23,-68.69 103.62,-23.43 174.68,-43.92 213.23,-61.44 56.1,-25.87 97.52,-58.61 124.23,-98.25 26.71,-39.66 40.09,-85.34 40.09,-137.02 0,-51.27 -14.69,-99.57 -44.04,-144.92 -29.36,-45.35 -71.53,-80.62 -126.51,-105.81 -55,-25.2 -116.89,-37.79 -185.66,-37.79 -87.19,0 -160.22,12.71 -219.16,38.11 -58.93,25.41 -105.16,63.64 -138.69,114.69 -33.5,51.04 -51.14,108.77 -52.89,173.18"
         style="fill:#c60a4d;fill-opacity:1;fill-rule:nonzero;stroke:none"
         id="path272" />
      <path
         d="m 8676.79,9249.32 120.27,10.51 c 5.69,-48.2 18.94,-87.74 39.74,-118.63 20.8,-30.88 53.15,-55.86 96.95,-74.92 43.81,-19.06 93.09,-28.59 147.88,-28.59 48.61,0 91.56,7.23 128.8,21.7 37.23,14.45 64.95,34.27 83.15,59.47 18.16,25.19 27.25,52.67 27.25,82.48 0,30.23 -8.76,56.61 -26.26,79.19 -17.53,22.56 -46.48,41.51 -86.77,56.85 -25.86,10.07 -83.03,25.73 -171.53,46.98 -88.51,21.25 -150.5,41.3 -185.99,60.14 -45.99,24.09 -80.28,53.99 -102.83,89.71 -22.58,35.71 -33.85,75.68 -33.85,119.94 0,48.62 13.79,94.08 41.4,136.38 27.58,42.26 67.9,74.35 120.91,96.27 53.01,21.9 111.95,32.86 176.8,32.86 71.4,0 134.38,-11.51 188.95,-34.5 54.54,-23.01 96.49,-56.86 125.86,-101.55 29.32,-44.68 45.1,-95.29 47.29,-151.81 l -122.23,-9.2 c -6.58,60.89 -28.81,106.9 -66.72,138.01 -37.9,31.11 -93.86,46.66 -167.91,46.66 -77.11,0 -133.3,-14.12 -168.55,-42.38 -35.29,-28.26 -52.93,-62.34 -52.93,-102.2 0,-34.62 12.5,-63.09 37.48,-85.43 24.53,-22.35 88.61,-45.25 192.23,-68.69 103.61,-23.43 174.68,-43.92 213.24,-61.44 56.08,-25.87 97.48,-58.61 124.22,-98.25 26.74,-39.66 40.11,-85.34 40.11,-137.02 0,-51.27 -14.7,-99.57 -44.05,-144.92 -29.36,-45.35 -71.53,-80.62 -126.49,-105.81 -55,-25.2 -116.88,-37.79 -185.69,-37.79 -87.19,0 -160.23,12.71 -219.18,38.11 -58.92,25.41 -105.13,63.64 -138.65,114.69 -33.51,51.04 -51.17,108.77 -52.9,173.18"
         style="fill:#c60a4d;fill-opacity:1;fill-rule:nonzero;stroke:none"
         id="path274" />
      <path
         d="m 9613.95,8939.77 v 963.46 h 191.89 l 228.06,-682.18 c 21,-63.53 36.4,-111.06 46,-142.61 10.9,35.04 28,86.52 51.2,154.45 l 230.7,670.34 h 171.6 v -963.46 h -122.9 v 806.39 l -280,-806.39 h -115 l -278.64,820.18 v -820.18 h -122.91"
         style="fill:#c60a4d;fill-opacity:1;fill-rule:nonzero;stroke:none"
         id="path276" />
      <path
         d="m 11189.9,9317.66 v 113.04 l 408.1,0.66 v -357.52 c -62.6,-49.96 -127.3,-87.52 -193.8,-112.71 -66.7,-25.2 -135,-37.79 -205.1,-37.79 -94.6,0 -180.6,20.26 -257.9,60.8 -77.4,40.52 -135.7,99.12 -175.2,175.79 -39.4,76.66 -59.1,162.33 -59.1,256.97 0,93.75 19.6,181.28 58.8,262.55 39.2,81.26 95.6,141.62 169.2,181.06 73.6,39.42 158.4,59.15 254.4,59.15 69.6,0 132.6,-11.29 188.9,-33.85 56.3,-22.57 100.4,-54.01 132.4,-94.31 32,-40.31 56.3,-92.89 73,-157.73 l -115,-31.54 c -14.5,49.06 -32.5,87.63 -53.9,115.67 -21.5,28.04 -52.2,50.48 -92,67.36 -39.9,16.86 -84.1,25.29 -132.8,25.29 -58.3,0 -108.7,-8.86 -151.1,-26.61 -42.6,-17.74 -76.8,-41.07 -102.9,-69.98 -26.1,-28.92 -46.3,-60.69 -60.8,-95.3 -24.5,-59.59 -36.8,-124.21 -36.8,-193.87 0,-85.88 14.8,-157.73 44.4,-215.56 29.5,-57.83 72.6,-100.78 129.1,-128.81 56.5,-28.05 116.6,-42.07 180.1,-42.07 55.2,0 109.1,10.62 161.7,31.88 52.5,21.24 92.4,43.91 119.6,68.02 v 179.41 h -283.3"
         style="fill:#c60a4d;fill-opacity:1;fill-rule:nonzero;stroke:none"
         id="path278" />
      <path
         d="m 11788.6,8939.77 v 963.46 h 696.6 v -113.71 h -569.1 v -295.07 h 533 v -113.04 h -533 v -327.95 h 591.5 v -113.69 h -719"
         style="fill:#c60a4d;fill-opacity:1;fill-rule:nonzero;stroke:none"
         id="path280" />
    </g>
  </g>
</svg>
